<svg width="40" height="40" viewBox="0 0 40 40" fill="none" xmlns="http://www.w3.org/2000/svg">
<g clip-path="url(#clip0_4_61)">
<path d="M16.1312 35.7146C24.6687 38.0022 33.4442 32.9357 35.7318 24.3981C38.0195 15.8606 32.9529 7.0851 24.4154 4.79748C15.8778 2.50985 7.1023 7.57639 4.81468 16.1139C2.52706 24.6514 7.59362 33.4269 16.1312 35.7146Z" fill="#1977F3"/>
<path d="M25.093 26.3379L26.9754 22.0518L22.6885 20.9031L23.4655 18.0032C23.7929 16.7814 24.7105 15.7482 26.6322 16.2631L28.5822 16.7856L29.6016 12.9813C29.6016 12.9813 27.913 12.2049 26.2217 11.7518C22.6913 10.8058 19.8094 12.3263 18.7708 16.2023L17.8581 19.6088L13.932 18.5569L12.7344 23.0264L16.6605 24.0784L13.7661 34.8804C14.5198 35.2152 15.3094 35.4944 16.1312 35.7146C16.9529 35.9347 17.7769 36.0856 18.5965 36.1748L21.4909 25.3727L25.093 26.3379Z" fill="white"/>
</g>
<defs>
<clipPath id="clip0_4_61">
<rect x="8.9574" y="0.653137" width="32.0078" height="32.0078" rx="4" transform="rotate(15 8.9574 0.653137)" fill="white"/>
</clipPath>
</defs>
</svg>
