<svg width="40" height="40" viewBox="0 0 40 40" fill="none" xmlns="http://www.w3.org/2000/svg">
<rect width="40" height="40" rx="5" fill="#FFE9D6"/>
<g clip-path="url(#clip0_4_322)">
<path d="M26.6667 11.6666H13.3334C12.4129 11.6666 11.6667 12.4128 11.6667 13.3333V16.6666C11.6667 17.5871 12.4129 18.3333 13.3334 18.3333H26.6667C27.5872 18.3333 28.3334 17.5871 28.3334 16.6666V13.3333C28.3334 12.4128 27.5872 11.6666 26.6667 11.6666Z" stroke="#FC881D" stroke-width="2" stroke-linecap="round" stroke-linejoin="round"/>
<path d="M26.6667 21.6666H13.3334C12.4129 21.6666 11.6667 22.4128 11.6667 23.3333V26.6666C11.6667 27.5871 12.4129 28.3333 13.3334 28.3333H26.6667C27.5872 28.3333 28.3334 27.5871 28.3334 26.6666V23.3333C28.3334 22.4128 27.5872 21.6666 26.6667 21.6666Z" stroke="#FC881D" stroke-width="2" stroke-linecap="round" stroke-linejoin="round"/>
<path d="M15 15H15.0083" stroke="#FC881D" stroke-width="2" stroke-linecap="round" stroke-linejoin="round"/>
<path d="M15 25H15.0083" stroke="#FC881D" stroke-width="2" stroke-linecap="round" stroke-linejoin="round"/>
</g>
<defs>
<clipPath id="clip0_4_322">
<rect width="20" height="20" fill="white" transform="translate(10 10)"/>
</clipPath>
</defs>
</svg>
